<?xml version="1.0" encoding="utf-8"?>
<!-- Svg Vector Icons : http://www.sfont.cn -->
<!DOCTYPE svg PUBLIC "-//W3C//DTD SVG 1.1//EN" "http://www.w3.org/Graphics/SVG/1.1/DTD/svg11.dtd">
<svg version="1.1" xmlns="http://www.w3.org/2000/svg" xmlns:xlink="http://www.w3.org/1999/xlink" x="0px" y="0px" viewBox="0 0 1000 1000" enable-background="new 0 0 1000 1000" xml:space="preserve">
<metadata> Svg Vector Icons : http://www.sfont.cn </metadata>
<g><g transform="translate(0.000000,512.000000) scale(0.100000,-0.100000)"><path d="M4530.1,5007.9C3377.4,4889,2339.7,4398,1530.4,3588.6C753.6,2811.8,285.6,1858.6,124.4,723.1c-32.6-226.3-32.6-982,0-1208.3c163-1137.4,629.1-2086.8,1405.9-2865.5c778.7-776.8,1728.1-1242.9,2865.5-1405.9c226.3-32.6,982-32.6,1208.3,0c790.2,113.2,1461.5,360.6,2100.2,778.7c521.7,341.4,1051.1,870.8,1392.5,1392.5c418.1,640.6,665.5,1310,778.7,2100.2c32.6,226.3,32.6,982,0,1208.3c-163,1137.4-629.1,2086.8-1405.9,2865.5c-759.5,759.5-1687.8,1223.7-2779.2,1392.5C5448.8,5017.5,4775.6,5034.8,4530.1,5007.9z M7915.4,2409.1c42.2-157.3,69-289.6,61.4-297.3c-7.7-7.7-136.2-44.1-285.8-84.4l-272.4-72.9l46-78.6c149.6-258.9,138.1-615.7-28.8-874.6c-228.3-356.7-702-489.1-1089.4-305c-283.9,136.2-483.3,450.7-483.3,767.2c0,65.2-5.8,74.8-32.6,67.1c-19.2-5.8-95.9-26.8-172.6-47.9l-138.1-36.4l-19.2,59.5c-53.7,168.8-138.1,517.9-126.6,527.4c11.5,13.4,2451.2,671.3,2460.8,663.6C7838.6,2694.8,7875.1,2564.4,7915.4,2409.1z M4501.3,2324.7v-306.9h-287.7c-157.3,0-287.7-3.8-287.7-7.7c0-3.8,30.7-55.6,67.1-117c274.3-456.5,46-1068.3-462.2-1237.1c-105.5-34.5-157.3-42.2-310.7-34.5c-159.2,5.7-205.2,15.3-314.6,67.1c-224.4,105.5-385.5,289.6-456.5,519.8c-72.9,234-34.5,519.8,95.9,713.5l57.5,86.3l-287.7,5.8l-287.7,5.8v305v306.9h1237.1h1237.1V2324.7z M6074.1-1990.8v-306.9H5000H3925.9v306.9v306.9H5000h1074.1V-1990.8z"/></g></g>
</svg>