<?xml version="1.0" encoding="utf-8"?>
<!-- Svg Vector Icons : http://www.sfont.cn -->
<!DOCTYPE svg PUBLIC "-//W3C//DTD SVG 1.1//EN" "http://www.w3.org/Graphics/SVG/1.1/DTD/svg11.dtd">
<svg version="1.1" xmlns="http://www.w3.org/2000/svg" xmlns:xlink="http://www.w3.org/1999/xlink" x="0px" y="0px" viewBox="0 0 1000 1000" enable-background="new 0 0 1000 1000" xml:space="preserve">
<metadata> Svg Vector Icons : http://www.sfont.cn </metadata>
<g><g><path d="M936.1,63.9C900.2,28,856.9,10,806.3,10H193.8c-50.6,0-93.9,18-129.8,53.9C28,99.8,10,143.1,10,193.7v612.5c0,50.6,18,93.9,53.9,129.8C99.9,972,143.1,990,193.8,990h612.5c50.6,0,93.9-18,129.8-53.9C972,900.1,990,856.9,990,806.2V193.7C990,143.1,972,99.8,936.1,63.9z M312.7,802.7c-16,15.9-35.2,23.9-57.7,23.9c-22.5,0-41.8-8-57.7-23.9c-15.9-16-23.9-35.2-23.9-57.8c0-22.5,8-41.8,23.9-57.7c16-16,35.2-23.9,57.7-23.9c22.5,0,41.8,8,57.7,23.9c15.9,16,23.9,35.2,23.9,57.7C336.7,767.5,328.7,786.8,312.7,802.7z M554.9,820.3c-4.2,4.2-9.1,6.4-14.7,6.4h-81.7c-5.5,0-10.2-1.8-14-5.4c-3.8-3.6-6-8.2-6.4-13.7c-4.7-65.5-30.4-121.6-77.2-168.4c-46.8-46.8-102.9-72.5-168.4-77.2c-5.5-0.4-10.1-2.5-13.7-6.4c-3.6-3.8-5.4-8.5-5.4-14v-81.7c0-5.5,2.1-10.4,6.4-14.7c4.3-4.3,9.4-6.2,15.3-5.7c98.7,5.5,182.9,43.2,252.7,112.9c69.8,69.8,107.4,154,112.9,252.7C561,810.9,559.1,816,554.9,820.3z M799.9,820.3c-4.3,4.2-9.1,6.4-14.7,6.4h-81.7c-5.5,0-10.2-1.9-14-5.7c-3.8-3.8-6-8.5-6.4-14c-3-86.8-26.7-167.2-71.1-241.2c-44.5-74-103.7-133.2-177.7-177.7c-74-44.5-154.4-68.2-241.2-71.1c-5.5-0.4-10.2-2.6-14-6.4c-3.8-3.8-5.7-8.5-5.7-14v-81.7c0-5.5,2.1-10.4,6.4-14.7c3.8-4.3,8.7-6.2,14.7-5.7c65.5,2.1,128.8,14,189.8,35.7c61,21.7,116.3,51.4,165.9,89c49.6,37.6,93.2,81.2,130.8,130.8c37.6,49.6,67.3,104.9,89,165.9c21.7,61,33.6,124.3,35.7,189.8C806.5,811.6,804.6,816.5,799.9,820.3z"/></g><g></g><g></g><g></g><g></g><g></g><g></g><g></g><g></g><g></g><g></g><g></g><g></g><g></g><g></g><g></g></g>
</svg>